                <svg width="814" height="468" viewBox="0 0 814 468" fill="none" xmlns="http://www.w3.org/2000/svg">
                    <path
                        d="M734.71 448.503H80.1021V24.878C80.1021 14.334 88.6501 5.78601 99.1941 5.78601H715.618C726.162 5.78601 734.71 14.334 734.71 24.878V448.503Z"
                        fill="white" stroke="#030303" stroke-width="2" stroke-miterlimit="10" stroke-linecap="round"
                        stroke-linejoin="round" />
                    <path
                        d="M739.761 448.503H75.0513V20.495C75.0513 9.814 83.7093 1.15601 94.3903 1.15601H720.422C731.103 1.15601 739.761 9.814 739.761 20.495V448.503Z"
                        fill="white" stroke="#030303" stroke-width="2" stroke-miterlimit="10" stroke-linecap="round"
                        stroke-linejoin="round" />
                    <path d="M722.482 28.9299H91.5581V424.723H722.482V28.9299Z" fill="white" stroke="#030303" stroke-width="2"
                        stroke-miterlimit="10" stroke-linecap="round" stroke-linejoin="round" />
                    <path
                        d="M0.995117 448.579V453.406H328.327C331.552 453.406 334.754 453.865 337.893 454.613C338.262 454.703 338.634 454.782 339.01 454.851V448.58H0.995117V448.579Z"
                        fill="white" stroke="#030303" stroke-width="2" stroke-miterlimit="10" stroke-linecap="round"
                        stroke-linejoin="round" />
                    <path
                        d="M474.99 448.579V454.85C473.596 455.109 472.178 455.243 470.753 455.243H343.247C341.822 455.243 340.404 455.109 339.01 454.85V448.579H474.99Z"
                        fill="white" stroke="#030303" stroke-width="2" stroke-miterlimit="10" stroke-linecap="round"
                        stroke-linejoin="round" />
                    <path
                        d="M330.021 453.405C330.021 453.405 336.021 453.817 339.021 454.817H475.021C475.021 454.817 479.021 453.817 483.021 453.405H812.392C812.504 453.405 812.528 453.566 812.421 453.599C784.061 462.378 754.542 466.844 724.852 466.844H407.021H89.1891C59.4991 466.844 29.9791 462.379 1.62008 453.599C1.51308 453.566 1.53709 453.405 1.64909 453.405H330.021Z"
                        fill="white" stroke="#030303" stroke-width="2" stroke-miterlimit="10" stroke-linecap="round"
                        stroke-linejoin="round" />
                    <path
                        d="M813.005 448.579V453.406H485.674C482.449 453.406 479.247 453.865 476.108 454.613C475.739 454.703 475.367 454.782 474.991 454.851V448.58H813.005V448.579Z"
                        fill="white" stroke="#030303" stroke-width="2" stroke-miterlimit="10" stroke-linecap="round"
                        stroke-linejoin="round" />
                </svg>