<svg width="308" height="76" viewBox="0 0 308 76" fill="none" xmlns="http://www.w3.org/2000/svg">
<rect y="1" width="308" height="75" rx="16" fill="#6C63FF"/>
<path d="M40.5703 49C39.8828 49 39.2344 48.9297 38.625 48.7891C38.0156 48.6328 37.4922 48.4297 37.0547 48.1797C36.6484 50.5703 35.8281 52.6953 34.5938 54.5547C33.3594 56.4141 31.7422 57.9531 29.7422 59.1719C27.7422 60.3906 25.3828 61.2578 22.6641 61.7734L20.3438 55.5156C22.6094 55.0312 24.5625 54.3906 26.2031 53.5938C27.8438 52.7969 29.1016 51.7188 29.9766 50.3594C30.8672 49.0156 31.3125 47.2812 31.3125 45.1562C31.3125 43.75 31.0859 42.1562 30.6328 40.375C30.1797 38.5938 29.6953 36.9375 29.1797 35.4062L35.4844 33.3672L36.8438 38.6641C37.1094 39.6797 37.5 40.5312 38.0156 41.2188C38.5312 41.8906 39.2969 42.2266 40.3125 42.2266H41.2031V49H40.5703ZM40.3125 42.2266H54.4922V49H40.3125V42.2266ZM53.5781 42.2266H67.7578V49H53.5781V42.2266ZM66.8203 42.2266H67.9453V49H66.8203V42.2266ZM71.6484 51.7656L75.8672 55.9844L71.6484 60.1797L67.4531 55.9844L71.6484 51.7656ZM73.8516 32.4297L79.7109 31.7031L80.1797 38.4062C80.2266 39.1875 80.3828 39.8672 80.6484 40.4453C80.9297 41.0234 81.3359 41.4688 81.8672 41.7812C82.3984 42.0781 83.0859 42.2266 83.9297 42.2266H84.3984V49H83.8828C82.8516 49 81.9141 48.875 81.0703 48.625C80.2266 48.3594 79.4766 48 78.8203 47.5469C78.1641 47.0938 77.5938 46.5625 77.1094 45.9531C76.1719 46.9062 75.0469 47.6562 73.7344 48.2031C72.4219 48.7344 71.0312 49 69.5625 49H67.3359V42.2266H69.5625C71.2812 42.2266 72.4609 41.8594 73.1016 41.125C73.7578 40.375 74.0859 39.2188 74.0859 37.6562C74.0859 36.75 74.0625 35.8594 74.0156 34.9844C73.9688 34.1094 73.9141 33.2578 73.8516 32.4297ZM99.5625 51.7656L103.781 55.9844L99.5625 60.1797L95.3672 55.9844L99.5625 51.7656ZM117.586 42.2266V49H116.227C114.32 49 112.648 48.8125 111.211 48.4375C109.789 48.0625 108.609 47.4531 107.672 46.6094C106.75 45.75 106.078 44.6328 105.656 43.2578C103.734 44.2891 101.781 45.2422 99.7969 46.1172C97.8125 46.9922 95.7969 47.6953 93.75 48.2266C91.7031 48.7422 89.5859 49 87.3984 49H83.5312V42.2266H87.4688C89.4844 42.2266 91.3828 42.0156 93.1641 41.5938C94.9609 41.1562 96.7891 40.5312 98.6484 39.7188C100.508 38.9062 102.555 37.9297 104.789 36.7891C104.211 36.5547 103.531 36.2812 102.75 35.9688C101.969 35.6562 101.203 35.3594 100.453 35.0781C99.7188 34.7812 99.1094 34.5469 98.625 34.375C98.2031 34.2344 97.8281 34.1094 97.5 34C97.1875 33.8906 96.9062 33.8125 96.6562 33.7656C96.4219 33.7031 96.2422 33.6719 96.1172 33.6719C95.2734 33.6719 94.4609 33.9375 93.6797 34.4688C92.9141 35 92.3125 35.5469 91.875 36.1094L90.6328 37.6797L85.3828 35.125L86.4375 33.4141C87.5312 31.6172 88.8984 30.1172 90.5391 28.9141C92.1953 27.7109 94.0625 27.1094 96.1406 27.1094C97.625 27.1094 99 27.3672 100.266 27.8828C101.547 28.3984 102.828 28.9688 104.109 29.5938C105.531 30.2969 106.75 30.875 107.766 31.3281C108.797 31.7656 109.719 32.1172 110.531 32.3828C111.344 32.6484 112.141 32.8438 112.922 32.9688C113.719 33.0938 114.594 33.1875 115.547 33.25V39.4609C114.641 39.5547 113.789 39.7031 112.992 39.9062C112.195 40.0938 111.289 40.3984 110.273 40.8203C110.461 41.1797 110.859 41.4609 111.469 41.6641C112.078 41.8672 112.812 42.0156 113.672 42.1094C114.531 42.1875 115.414 42.2266 116.32 42.2266H117.586ZM119.297 49H116.695V42.2266H119.25C120.625 42.2266 121.672 41.9922 122.391 41.5234C123.109 41.0391 123.469 40.0703 123.469 38.6172C123.469 37.7422 123.375 36.6172 123.188 35.2422C123 33.8516 122.672 32.2578 122.203 30.4609L128.273 28.8203C128.68 30.4297 128.984 31.9766 129.188 33.4609C129.391 34.9453 129.492 36.3828 129.492 37.7734C129.492 40.0391 129.164 42.0156 128.508 43.7031C127.852 45.375 126.781 46.6797 125.297 47.6172C123.812 48.5391 121.812 49 119.297 49ZM123.164 17.9922L127.383 22.2109L123.164 26.4062L118.969 22.2109L123.164 17.9922ZM129.094 61.7969L126.703 55.5156C128.969 55.0312 130.922 54.3906 132.562 53.5938C134.203 52.7969 135.461 51.7188 136.336 50.3594C137.227 49.0156 137.672 47.2812 137.672 45.1562C137.672 43.75 137.445 42.1562 136.992 40.375C136.539 38.5938 136.055 36.9375 135.539 35.4062L141.867 33.3672C142.477 35.0859 142.938 36.9297 143.25 38.8984C143.578 40.8516 143.742 42.7344 143.742 44.5469C143.742 47.8281 143.133 50.6406 141.914 52.9844C140.711 55.3438 139.008 57.25 136.805 58.7031C134.617 60.1719 132.047 61.2031 129.094 61.7969ZM174.211 54.3438C176.477 54.3438 178.258 53.9844 179.555 53.2656C180.852 52.5469 181.773 51.5703 182.32 50.3359C182.883 49.1016 183.164 47.7031 183.164 46.1406C183.164 44.4375 182.891 42.6953 182.344 40.9141C181.812 39.1328 181.211 37.4297 180.539 35.8047L186.797 33.4609L188.367 38.2891C188.727 39.3828 189.219 40.3125 189.844 41.0781C190.469 41.8281 191.414 42.2109 192.68 42.2266C193.977 42.2266 194.93 41.875 195.539 41.1719C196.164 40.4531 196.477 39.4062 196.477 38.0312C196.477 37.8125 196.461 37.4297 196.43 36.8828C196.414 36.3203 196.375 35.7031 196.312 35.0312C196.266 34.3438 196.219 33.7188 196.172 33.1562L202.078 32.4297L202.547 38.6406C202.594 39.2812 202.719 39.875 202.922 40.4219C203.125 40.9688 203.43 41.4062 203.836 41.7344C204.242 42.0625 204.773 42.2266 205.43 42.2266C206.055 42.2266 206.555 42.0781 206.93 41.7812C207.305 41.4688 207.578 41.0312 207.75 40.4688C207.922 39.9062 208.008 39.2422 208.008 38.4766C208.008 38.1016 207.992 37.5781 207.961 36.9062C207.93 36.2344 207.891 35.5156 207.844 34.75C207.797 33.9688 207.75 33.25 207.703 32.5938L213.609 31.8672L214.078 38.6406C214.125 39.4062 214.281 40.0547 214.547 40.5859C214.812 41.1172 215.203 41.5234 215.719 41.8047C216.234 42.0859 216.891 42.2266 217.688 42.2266H218.367V49H217.734C216.297 49 215.031 48.75 213.938 48.25C212.844 47.75 211.977 47.0703 211.336 46.2109C210.695 47.0078 209.906 47.6719 208.969 48.2031C208.031 48.7344 206.898 49 205.57 49C204.18 49 202.977 48.7109 201.961 48.1328C200.945 47.5547 200.109 46.8438 199.453 46C198.656 46.8438 197.695 47.5547 196.57 48.1328C195.445 48.7109 194.195 49 192.82 49C192.117 49 191.469 48.9062 190.875 48.7188C190.281 48.5156 189.742 48.2344 189.258 47.875C188.961 50.5625 188.195 52.8906 186.961 54.8594C185.727 56.8438 184.039 58.3672 181.898 59.4297C179.773 60.5078 177.211 61.0469 174.211 61.0469C170.852 61.0469 168.078 60.3984 165.891 59.1016C163.719 57.8203 162.109 56.0703 161.062 53.8516C160.016 51.6484 159.492 49.1562 159.492 46.375C159.492 44.5 159.695 42.5703 160.102 40.5859C160.508 38.5859 161.094 36.6016 161.859 34.6328L167.555 36.8125C166.977 38.4688 166.492 40.0859 166.102 41.6641C165.711 43.2422 165.516 44.7188 165.516 46.0938C165.516 47.5938 165.781 48.9688 166.312 50.2188C166.844 51.4844 167.742 52.4844 169.008 53.2188C170.273 53.9688 172.008 54.3438 174.211 54.3438ZM217.406 42.2266H219.281V49H217.406V42.2266ZM225.938 52L229.945 55.9844L225.938 60.0156L221.93 55.9844L225.938 52ZM218.016 52L222.047 55.9844L218.016 60.0156L214.031 55.9844L218.016 52ZM221.344 49H218.742V42.2266H221.297C222.672 42.2266 223.719 41.9922 224.438 41.5234C225.156 41.0391 225.516 40.0703 225.516 38.6172C225.516 37.7422 225.422 36.6172 225.234 35.2422C225.047 33.8516 224.719 32.2578 224.25 30.4609L230.32 28.8203C230.727 30.4297 231.031 31.9766 231.234 33.4609C231.438 34.9453 231.539 36.3828 231.539 37.7734C231.539 40.0391 231.211 42.0156 230.555 43.7031C229.898 45.375 228.828 46.6797 227.344 47.6172C225.859 48.5391 223.859 49 221.344 49ZM234.609 61.7969L232.219 55.5156C234.484 55.0312 236.438 54.3906 238.078 53.5938C239.719 52.7969 240.977 51.7188 241.852 50.3594C242.742 49.0156 243.188 47.2812 243.188 45.1562C243.188 43.75 242.961 42.1562 242.508 40.375C242.055 38.5938 241.57 36.9375 241.055 35.4062L247.383 33.3672C247.992 35.0859 248.453 36.9297 248.766 38.8984C249.094 40.8516 249.258 42.7344 249.258 44.5469C249.258 47.8281 248.648 50.6406 247.43 52.9844C246.227 55.3438 244.523 57.25 242.32 58.7031C240.133 60.1719 237.562 61.2031 234.609 61.7969ZM259.336 42.2969C260.617 42.2969 261.875 42.2031 263.109 42.0156C264.344 41.8281 265.359 41.4922 266.156 41.0078C266.953 40.5078 267.352 39.7812 267.352 38.8281C267.352 37.8438 266.875 36.7969 265.922 35.6875C264.969 34.5625 263.719 33.4609 262.172 32.3828C260.625 31.3047 258.938 30.3359 257.109 29.4766L259.992 23.3828C261.648 24.1953 263.266 25.1094 264.844 26.125C266.438 27.125 267.875 28.2422 269.156 29.4766C270.438 30.7109 271.453 32.0781 272.203 33.5781C272.953 35.0781 273.328 36.7344 273.328 38.5469C273.328 41.0469 272.758 43.0625 271.617 44.5938C270.492 46.125 268.906 47.2344 266.859 47.9219C264.828 48.6094 262.438 48.9531 259.688 48.9531C258.438 48.9531 257.273 48.9141 256.195 48.8359C255.117 48.7422 254.062 48.5781 253.031 48.3438V41.5938C254.047 41.7969 255.133 41.9688 256.289 42.1094C257.461 42.2344 258.477 42.2969 259.336 42.2969ZM284.836 15.9062V48.9766H278.414V15.9062H284.836Z" fill="#FAFAFA"/>
</svg>
