<svg width="294" height="441" viewBox="0 0 294 441" fill="none" xmlns="http://www.w3.org/2000/svg">
<g opacity="0.2">
<path d="M90.8154 83.3959C102.359 81.2854 113.903 79.1743 127.439 91.266C140.975 103.358 156.501 129.651 169.719 134.056C182.937 138.461 193.846 120.976 205.266 118.477C216.685 115.977 228.613 128.463 242.75 137.506C256.886 146.548 273.23 152.148 286.802 161.769C300.374 171.389 311.175 185.032 324.532 191.668C337.889 198.303 353.801 197.931 366.522 202.774C379.243 207.617 388.771 217.672 410.598 233.501" stroke="#7C96F7" stroke-width="4" stroke-linecap="round"/>
<path d="M74.004 147.205C89.3301 151.351 104.656 155.497 115.236 165.125C125.815 174.752 131.646 189.859 144.38 197.447C157.114 205.035 176.751 205.103 190.815 211.356C204.878 217.609 213.369 230.048 226.507 234.563C239.646 239.078 257.433 235.672 272.753 234.761C288.074 233.85 300.928 235.436 312.846 239.957C324.763 244.479 335.745 251.936 347.03 261.022C358.314 270.108 369.901 280.822 393.787 297.31" stroke="#6C63FF" stroke-width="4" stroke-linecap="round"/>
<path d="M57.1926 211.013C70.5859 216.779 83.9792 222.543 95.5462 225.431C107.113 228.319 116.855 228.329 129.874 239.393C142.893 250.458 159.189 272.577 173.725 273.6C188.26 274.623 201.033 254.551 211.813 262.798C222.592 271.046 231.377 307.615 245.782 317.461C260.187 327.308 280.21 310.433 294.185 310.785C308.16 311.136 316.087 328.715 326.827 339.013C337.568 349.311 351.122 352.328 376.976 361.118" stroke="#9A8FFF" stroke-width="4" stroke-linecap="round"/>
<path d="M40.3813 274.822C54.3199 279.997 68.2585 285.171 79.0667 295.849C89.875 306.526 97.5528 322.707 112.324 324.365C127.095 326.024 148.959 313.16 163.552 316.147C178.144 319.133 185.465 337.969 195.435 351.189C205.405 364.408 218.022 372.011 230.988 373.613C243.955 375.215 257.27 370.816 271.7 371.213C286.13 371.61 301.675 376.804 314.555 385.593C327.435 394.383 337.65 406.768 360.164 424.927" stroke="#8C7EFF" stroke-opacity="0.2" stroke-width="4" stroke-linecap="round"/>
</g>
</svg>
