<svg width="130" height="130" viewBox="0 0 130 130" fill="none" xmlns="http://www.w3.org/2000/svg">
<g clip-path="url(#clip0_1409_1101)">
<path fill-rule="evenodd" clip-rule="evenodd" d="M46.9313 56.8069C43.8017 55.0998 40.1838 54.5865 36.1225 55.7748C23.5591 59.4512 18.4768 69.2893 17.7906 80.9517C16.7893 97.9809 25.3024 118.938 32.9119 129.353C33.2717 129.847 33.9635 129.953 34.4545 129.593C34.9482 129.233 35.0569 128.541 34.697 128.048C27.3108 117.939 19.0264 97.6072 19.9971 81.0801C20.6275 70.3717 25.2049 61.2727 36.7445 57.8975C40.1783 56.8906 43.2298 57.334 45.8797 58.7706C44.9676 60.5167 44.1168 62.2657 43.3302 64.0146C41.1601 68.843 37.9161 82.2488 39.1267 92.1064C39.997 99.1775 43.1517 104.419 50.0471 104.235C53.8797 104.132 56.6523 101.744 58.3482 97.9447C60.6829 92.7229 60.9451 84.723 59.3021 77.0578C57.9353 70.6757 55.2576 64.5363 51.4585 60.4163C50.6217 59.5126 49.7346 58.7008 48.7946 58.0035C61.9047 34.026 86.2588 11.605 111.268 2.14895C111.837 1.93138 112.127 1.29544 111.91 0.723619C111.695 0.151796 111.056 -0.135526 110.487 0.0792562C85.0704 9.69146 60.312 32.4389 46.9313 56.8069ZM47.7374 59.9868C46.8838 61.6297 46.0861 63.2754 45.3469 64.9212C43.2688 69.5487 40.1614 82.391 41.3218 91.8359C42.0331 97.6322 44.3372 102.176 49.9885 102.025C52.9564 101.945 55.0149 99.9837 56.3315 97.0437C57.7764 93.808 58.3287 89.4259 58.0972 84.7537C57.7457 77.6603 55.5784 69.9003 51.8072 64.408C50.6133 62.6674 49.2548 61.1583 47.7374 59.9868Z" fill="white"/>
<path fill-rule="evenodd" clip-rule="evenodd" d="M91.5063 38.3321C93.7323 25.3336 102.229 11.4927 111.386 1.90834C111.807 1.46762 111.791 0.767459 111.35 0.346263C110.909 -0.0749336 110.209 -0.060954 109.788 0.379768C100.343 10.2625 91.6235 24.5581 89.3278 37.9583C89.2246 38.558 89.6291 39.1298 90.2316 39.2331C90.8314 39.3363 91.4031 38.9318 91.5063 38.3321Z" fill="white"/>
<path fill-rule="evenodd" clip-rule="evenodd" d="M109.646 0.146652C100.111 5.59152 85.4867 6.34468 74.8256 3.58598C74.2343 3.43256 73.629 3.78684 73.4784 4.37819C73.3249 4.96954 73.6791 5.572 74.2705 5.72541C85.4392 8.61521 100.753 7.77006 110.742 2.06578C111.272 1.76453 111.456 1.08667 111.155 0.556683C110.851 0.026701 110.175 -0.15739 109.646 0.146652Z" fill="white"/>
</g>
<defs>
<clipPath id="clip0_1409_1101">
<rect width="130" height="130" fill="white"/>
</clipPath>
</defs>
</svg>
