<svg width="42" height="28" viewBox="0 0 42 28" fill="none" xmlns="http://www.w3.org/2000/svg">
<path id="Vector" d="M41.0755 1.07072C40.4834 0.385138 39.6804 3.27803e-07 38.8431 3.27803e-07C38.0059 3.27803e-07 37.2029 0.385138 36.6108 1.07072L20.9809 19.1728L5.35112 1.07072C4.7556 0.404568 3.958 0.0359639 3.1301 0.044296C2.30221 0.0526282 1.51025 0.437229 0.924821 1.11526C0.339387 1.7933 0.0073161 2.71052 0.000121905 3.66937C-0.00707229 4.62822 0.31119 5.55198 0.886361 6.2417L18.7486 26.9293C19.3407 27.6149 20.1437 28 20.9809 28C21.8182 28 22.6212 27.6149 23.2133 26.9293L41.0755 6.2417C41.6675 5.55591 42 4.62591 42 3.65621C42 2.68651 41.6675 1.7565 41.0755 1.07072Z" fill="white"/>
</svg>
