<svg width="48" height="48" viewBox="0 0 48 48" fill="none" xmlns="http://www.w3.org/2000/svg">
<path d="M23.5625 0C10.5705 0 0 10.5716 0 23.565C0 36.5584 10.5705 47.13 23.5625 47.13C36.5545 47.13 47.125 36.5584 47.125 23.565C47.125 10.5716 36.5545 0 23.5625 0ZM23.5625 3.62538C34.5952 3.62538 43.5 12.5311 43.5 23.565C43.5 34.5989 34.5952 43.5046 23.5625 43.5046C12.5298 43.5046 3.625 34.5989 3.625 23.565C3.625 12.5311 12.5298 3.62538 23.5625 3.62538ZM21.75 21.7523H12.6875V25.3777H21.75H25.375H34.4375V21.7523H25.375H21.75Z" fill="#FAFAFA"/>
</svg>
