<svg width="48" height="48" viewBox="0 0 48 48" fill="none" xmlns="http://www.w3.org/2000/svg">
<path d="M23.5625 0C10.5705 0 0 10.5705 0 23.5625C0 36.5545 10.5705 47.125 23.5625 47.125C36.5545 47.125 47.125 36.5545 47.125 23.5625C47.125 10.5705 36.5545 0 23.5625 0ZM23.5625 3.625C34.5952 3.625 43.5 12.5298 43.5 23.5625C43.5 34.5952 34.5952 43.5 23.5625 43.5C12.5298 43.5 3.625 34.5952 3.625 23.5625C3.625 12.5298 12.5298 3.625 23.5625 3.625ZM21.75 12.6875V21.75H12.6875V25.375H21.75V34.4375H25.375V25.375H34.4375V21.75H25.375V12.6875H21.75Z" fill="#323030"/>
</svg>
