<svg width="20" height="20" viewBox="0 0 23 23" fill="none" xmlns="http://www.w3.org/2000/svg">
    <path d="M21.7076 20.6453L17.6259 16.5966C19.2103 14.6212 19.9775 12.1137 19.7699 9.58992C19.5623 7.06611 18.3957 4.71775 16.5098 3.02772C14.6239 1.33769 12.1622 0.434441 9.6308 0.503709C7.0994 0.572977 4.69076 1.60949 2.90013 3.40013C1.10949 5.19076 0.0729766 7.5994 0.00370867 10.1308C-0.0655592 12.6622 0.837685 15.1239 2.52772 17.0098C4.21775 18.8957 6.56611 20.0623 9.08992 20.2699C11.6137 20.4775 14.1212 19.7103 16.0966 18.1259L20.1453 22.1746C20.2476 22.2777 20.3693 22.3595 20.5033 22.4154C20.6374 22.4712 20.7812 22.5 20.9264 22.5C21.0717 22.5 21.2155 22.4712 21.3495 22.4154C21.4836 22.3595 21.6053 22.2777 21.7076 22.1746C21.9059 21.9694 22.0167 21.6953 22.0167 21.4099C22.0167 21.1246 21.9059 20.8505 21.7076 20.6453ZM9.92463 18.1259C8.40146 18.1259 6.9125 17.6742 5.64603 16.828C4.37956 15.9818 3.39247 14.779 2.80958 13.3718C2.22669 11.9646 2.07418 10.4161 2.37134 8.92219C2.66849 7.42829 3.40197 6.05605 4.47901 4.97901C5.55605 3.90197 6.92829 3.16849 8.42219 2.87134C9.91609 2.57418 11.4646 2.72669 12.8718 3.30958C14.279 3.89247 15.4818 4.87956 16.328 6.14603C17.1742 7.4125 17.6259 8.90146 17.6259 10.4246C17.6259 12.4671 16.8145 14.426 15.3702 15.8702C13.926 17.3145 11.9671 18.1259 9.92463 18.1259Z" fill="#858796"/>
</svg>
