<svg width="31" height="31.5" viewBox="0 0 31 32" fill="none" xmlns="http://www.w3.org/2000/svg">
<path d="M5.18688 0.223877C5.80822 0.223877 6.34312 0.728589 6.46199 1.42619L6.54303 2.19589H29.2735C30.3703 2.19589 31.2455 3.4438 30.9376 4.70157L28.02 16.5361C27.8092 17.3865 27.1285 17.972 26.3558 17.972H9.22292L9.72 20.93H26.3666C27.0852 20.93 27.6634 21.5894 27.6634 22.409C27.6634 23.2286 27.0852 23.888 26.3666 23.888H8.59617C8.02345 23.888 7.48856 23.3827 7.36969 22.6863L4.11384 3.18189H1.29672C0.580822 3.18189 0 2.51942 0 1.70289C0 0.886349 0.580822 0.223877 1.29672 0.223877H5.18688ZM6.91584 28.818C6.91584 27.185 8.07748 25.86 9.50928 25.86C10.9411 25.86 12.1027 27.185 12.1027 28.818C12.1027 30.4511 10.9411 31.7761 9.50928 31.7761C8.07748 31.7761 6.91584 30.4511 6.91584 28.818ZM27.6634 28.818C27.6634 30.4511 26.5017 31.7761 25.0699 31.7761C23.6381 31.7761 22.4765 30.4511 22.4765 28.818C22.4765 27.185 23.6381 25.86 25.0699 25.86C26.5017 25.86 27.6634 27.185 27.6634 28.818Z" fill="#7C96F7"/>
</svg>