<svg xmlns="http://www.w3.org/2000/svg" width="18" height="19" viewBox="0 0 18 19" fill="none">
  <path d="M9 0.5C4.032 0.5 0 4.532 0 9.5C0 14.468 4.032 18.5 9 18.5C13.968 18.5 18 14.468 18 9.5C18 4.532 13.968 0.5 9 0.5ZM12.249 6.206C13.212 6.206 13.986 6.98 13.986 7.943C13.986 8.906 13.212 9.68 12.249 9.68C11.286 9.68 10.512 8.906 10.512 7.943C10.503 6.98 11.286 6.206 12.249 6.206ZM6.849 4.784C8.019 4.784 8.973 5.738 8.973 6.908C8.973 8.078 8.019 9.032 6.849 9.032C5.679 9.032 4.725 8.078 4.725 6.908C4.725 5.729 5.67 4.784 6.849 4.784ZM6.849 13.001V16.376C4.689 15.701 2.979 14.036 2.223 11.912C3.168 10.904 5.526 10.391 6.849 10.391C7.326 10.391 7.929 10.463 8.559 10.589C7.083 11.372 6.849 12.407 6.849 13.001ZM9 16.7C8.757 16.7 8.523 16.691 8.289 16.664V13.001C8.289 11.723 10.935 11.084 12.249 11.084C13.212 11.084 14.877 11.435 15.705 12.119C14.652 14.792 12.051 16.7 9 16.7Z" fill="#323030"/>
</svg>